<svg xmlns="http://www.w3.org/2000/svg" xmlns:xlink="http://www.w3.org/1999/xlink" viewBox="100 100 175 180" preserveAspectRatio="xMidYMid meet"><defs><g/><clipPath id="c1"><path d="M 118.054688 109.261719 L 256.804688 109.261719 L 256.804688 211.261719 L 118.054688 211.261719 Z"/></clipPath><clipPath id="c2"><path d="M 118.054688 228.550781 L 256.804688 228.550781 L 256.804688 247.261719 L 118.054688 247.261719 Z"/></clipPath><clipPath id="c3"><path d="M 129 120.21875 L 246 120.21875 L 246 237 L 129 237 Z"/></clipPath></defs><g clip-path="url(#c1)"><path fill="#000" d="M 187.472656 248.140625 C 149.214844 248.140625 118.054688 216.980469 118.054688 178.675781 C 118.054688 140.375 149.214844 109.261719 187.472656 109.261719 C 225.726562 109.261719 256.886719 140.421875 256.886719 178.675781 C 256.933594 216.980469 225.773438 248.140625 187.472656 248.140625 Z M 187.472656 110.433594 C 149.828125 110.433594 119.230469 141.03125 119.230469 178.675781 C 119.230469 216.320312 149.875 246.964844 187.472656 246.964844 C 225.070312 246.964844 255.761719 216.320312 255.761719 178.675781 C 255.761719 141.03125 225.117188 110.433594 187.472656 110.433594 Z"/></g><g clip-path="url(#c2)"><path fill="#000" d="M 187.472656 247.390625 C 149.214844 247.390625 118.054688 216.230469 118.054688 177.925781 C 118.054688 139.625 149.214844 108.511719 187.472656 108.511719 C 225.726562 108.511719 256.886719 139.671875 256.886719 177.925781 C 256.933594 216.230469 225.773438 247.390625 187.472656 247.390625 Z M 187.472656 109.683594 C 149.828125 109.683594 119.230469 140.28125 119.230469 177.925781 C 119.230469 215.570312 149.875 246.214844 187.472656 246.214844 C 225.070312 246.214844 255.761719 215.570312 255.761719 177.925781 C 255.761719 140.28125 225.117188 109.683594 187.472656 109.683594 Z"/></g><g clip-path="url(#c3)"><path fill="#000" d="M 187.832031 236.703125 C 156.253906 236.703125 130.539062 211.175781 130.203125 179.671875 L 136.492188 179.671875 C 136.808594 207.800781 159.699219 230.4375 187.832031 230.433594 C 188.160156 230.433594 188.429688 230.164062 188.429688 229.832031 C 188.429688 229.5 188.160156 229.234375 187.832031 229.234375 C 160.382812 229.234375 138.003906 207.070312 137.691406 179.671875 L 182.453125 179.671875 C 182.730469 182.1875 184.714844 184.171875 187.230469 184.449219 L 187.230469 203.492188 L 180.148438 210.550781 C 179.882812 210.75 179.828125 211.128906 180.027344 211.390625 C 180.226562 211.65625 180.601562 211.710938 180.867188 211.511719 C 180.914062 211.480469 180.953125 211.4375 180.988281 211.390625 L 187.207031 205.171875 L 187.207031 210.121094 L 180.148438 217.203125 C 179.882812 217.402344 179.828125 217.777344 180.027344 218.042969 C 180.226562 218.308594 180.601562 218.363281 180.867188 218.164062 C 180.914062 218.128906 180.953125 218.089844 180.988281 218.042969 L 187.207031 211.824219 L 187.207031 216.773438 L 180.148438 223.832031 C 179.882812 224.03125 179.828125 224.40625 180.027344 224.671875 C 180.226562 224.9375 180.601562 224.988281 180.867188 224.792969 C 180.914062 224.757812 180.953125 224.714844 180.988281 224.671875 L 187.207031 218.453125 L 187.207031 221.835938 C 187.207031 222.167969 187.476562 222.4375 187.804688 222.4375 C 188.136719 222.4375 188.40625 222.167969 188.40625 221.835938 L 188.40625 218.476562 L 194.648438 224.695312 C 194.914062 224.894531 195.292969 224.839844 195.492188 224.574219 C 195.652344 224.363281 195.652344 224.066406 195.492188 223.855469 L 188.429688 216.773438 L 188.429688 211.824219 L 194.648438 218.042969 C 194.914062 218.242188 195.292969 218.1875 195.492188 217.921875 C 195.652344 217.710938 195.652344 217.417969 195.492188 217.203125 L 188.40625 210.121094 L 188.40625 205.171875 L 194.625 211.390625 C 194.890625 211.589844 195.269531 211.539062 195.46875 211.273438 C 195.625 211.058594 195.625 210.765625 195.46875 210.550781 L 188.382812 203.46875 L 188.382812 184.449219 C 189.492188 184.324219 190.53125 183.851562 191.359375 183.105469 L 215.300781 204.644531 C 212.726562 207.421875 209.746094 209.796875 206.464844 211.679688 C 206.160156 211.816406 206.027344 212.171875 206.164062 212.476562 C 206.300781 212.777344 206.65625 212.910156 206.957031 212.773438 C 206.996094 212.757812 207.03125 212.738281 207.066406 212.714844 C 210.457031 210.761719 213.53125 208.308594 216.1875 205.4375 L 230.1875 218.042969 C 219.308594 229.921875 203.941406 236.691406 187.832031 236.703125 Z M 193.210938 179.671875 L 225.410156 179.671875 C 225.257812 188.539062 221.984375 197.066406 216.164062 203.757812 L 192.226562 182.21875 C 192.765625 181.46875 193.105469 180.589844 193.210938 179.671875 Z M 188.429688 174.917969 C 190.726562 175.269531 192.300781 177.410156 191.953125 179.707031 C 191.675781 181.523438 190.246094 182.949219 188.429688 183.226562 Z M 187.832031 146.390625 C 187.5 146.390625 187.230469 146.660156 187.230469 146.992188 L 187.230469 160.222656 L 181.972656 153.476562 L 187.832031 136.667969 L 193.6875 153.5 L 188.429688 160.246094 L 188.429688 146.992188 C 188.429688 146.660156 188.160156 146.390625 187.832031 146.390625 Z M 187.230469 174.917969 L 187.230469 183.226562 C 184.9375 182.875 183.359375 180.734375 183.710938 178.4375 C 183.988281 176.621094 185.414062 175.195312 187.230469 174.917969 Z M 130.203125 178.472656 C 130.332031 164.652344 135.449219 151.339844 144.609375 140.988281 L 158.609375 153.59375 C 152.59375 160.503906 149.207031 169.3125 149.050781 178.472656 Z M 150.25 178.472656 C 150.402344 169.605469 153.675781 161.078125 159.496094 154.386719 L 183.4375 175.925781 C 182.894531 176.675781 182.554688 177.554688 182.453125 178.472656 Z M 231.050781 217.15625 L 217.054688 204.550781 C 223.074219 197.632812 226.457031 188.816406 226.609375 179.648438 L 245.460938 179.648438 C 245.335938 193.476562 240.21875 206.796875 231.050781 217.15625 Z M 187.832031 121.445312 C 219.40625 121.445312 245.125 146.96875 245.460938 178.472656 L 239.167969 178.472656 C 238.851562 150.34375 215.960938 127.707031 187.832031 127.710938 C 187.5 127.710938 187.230469 127.980469 187.230469 128.308594 C 187.230469 128.640625 187.5 128.910156 187.832031 128.910156 C 215.277344 128.910156 237.65625 151.074219 237.96875 178.472656 L 193.210938 178.472656 C 192.933594 175.957031 190.945312 173.972656 188.429688 173.695312 L 188.429688 162.167969 L 194.820312 153.957031 C 194.949219 153.792969 194.984375 153.574219 194.914062 153.378906 L 188.40625 134.625 C 188.292969 134.316406 187.949219 134.152344 187.636719 134.265625 C 187.46875 134.328125 187.339844 134.457031 187.277344 134.625 L 180.746094 153.402344 C 180.675781 153.597656 180.714844 153.816406 180.84375 153.980469 L 187.230469 162.191406 L 187.230469 173.71875 C 186.121094 173.847656 185.082031 174.316406 184.253906 175.0625 L 160.3125 153.523438 C 162.886719 150.746094 165.867188 148.375 169.148438 146.488281 C 169.453125 146.351562 169.585938 145.996094 169.449219 145.691406 C 169.3125 145.390625 168.957031 145.257812 168.65625 145.394531 C 168.617188 145.410156 168.582031 145.429688 168.550781 145.457031 C 165.15625 147.40625 162.082031 149.859375 159.425781 152.730469 L 145.425781 140.101562 C 156.316406 128.207031 171.703125 121.4375 187.832031 121.445312 Z M 187.832031 120.242188 C 155.339844 120.253906 129.007812 146.601562 129.019531 179.09375 C 129.027344 194.683594 135.21875 209.632812 146.242188 220.660156 C 169.710938 243.128906 206.953125 242.316406 229.417969 218.847656 C 251.199219 196.097656 251.199219 160.234375 229.417969 137.484375 C 218.414062 126.414062 203.441406 120.207031 187.832031 120.242188"/></g><g fill="#000" fill-opacity="1"><g transform="translate(130.91268, 269.339397)"><g><path d="M 8.328125 -7.296875 C 9.484375 -7.171875 10.421875 -6.851562 11.140625 -6.34375 C 11.867188 -5.84375 12.234375 -5.097656 12.234375 -4.109375 C 12.234375 -3.265625 11.976562 -2.535156 11.46875 -1.921875 C 10.957031 -1.316406 10.257812 -0.84375 9.375 -0.5 C 8.488281 -0.164062 7.484375 0 6.359375 0 L 0.265625 0 L 0.265625 -0.09375 C 0.640625 -0.21875 0.960938 -0.382812 1.234375 -0.59375 C 1.503906 -0.800781 1.640625 -1.066406 1.640625 -1.390625 L 1.640625 -11.578125 C 1.640625 -11.898438 1.503906 -12.125 1.234375 -12.25 C 0.960938 -12.375 0.640625 -12.460938 0.265625 -12.515625 L 0.265625 -12.59375 L 5.640625 -12.59375 C 6.367188 -12.59375 7.054688 -12.554688 7.703125 -12.484375 C 8.347656 -12.421875 8.921875 -12.296875 9.421875 -12.109375 C 9.929688 -11.929688 10.328125 -11.679688 10.609375 -11.359375 C 10.898438 -11.035156 11.046875 -10.613281 11.046875 -10.09375 C 11.046875 -9.4375 10.796875 -8.847656 10.296875 -8.328125 C 9.804688 -7.816406 9.148438 -7.472656 8.328125 -7.296875 Z M 5.546875 -12.3125 L 4.109375 -12.3125 L 4.109375 -7.34375 L 6.84375 -7.34375 C 7.164062 -7.34375 7.460938 -7.382812 7.734375 -7.46875 C 8.015625 -7.5625 8.234375 -7.742188 8.390625 -8.015625 C 8.554688 -8.285156 8.640625 -8.695312 8.640625 -9.25 C 8.640625 -9.820312 8.535156 -10.335938 8.328125 -10.796875 C 8.117188 -11.265625 7.785156 -11.632812 7.328125 -11.90625 C 6.878906 -12.175781 6.285156 -12.3125 5.546875 -12.3125 Z M 6.53125 -0.28125 C 7.3125 -0.28125 7.9375 -0.351562 8.40625 -0.5 C 8.882812 -0.65625 9.234375 -0.953125 9.453125 -1.390625 C 9.679688 -1.835938 9.796875 -2.507812 9.796875 -3.40625 C 9.796875 -3.84375 9.753906 -4.273438 9.671875 -4.703125 C 9.585938 -5.128906 9.414062 -5.519531 9.15625 -5.875 C 8.894531 -6.226562 8.507812 -6.507812 8 -6.71875 C 7.5 -6.925781 6.820312 -7.03125 5.96875 -7.03125 L 4.109375 -7.03125 L 4.109375 -0.703125 C 4.535156 -0.566406 4.941406 -0.460938 5.328125 -0.390625 C 5.710938 -0.316406 6.113281 -0.28125 6.53125 -0.28125 Z"/></g></g></g><g fill="#000" fill-opacity="1"><g transform="translate(158.102158, 269.339397)"><g><path d="M 12.796875 -2.265625 C 13.015625 -1.710938 13.207031 -1.28125 13.375 -0.96875 C 13.539062 -0.664062 13.71875 -0.445312 13.90625 -0.3125 C 14.09375 -0.1875 14.316406 -0.109375 14.578125 -0.078125 L 14.578125 0 L 8.890625 0 L 8.890625 -0.078125 C 9.304688 -0.109375 9.648438 -0.1875 9.921875 -0.3125 C 10.203125 -0.4375 10.378906 -0.644531 10.453125 -0.9375 C 10.523438 -1.226562 10.453125 -1.632812 10.234375 -2.15625 L 9.875 -3.0625 L 3 -3.0625 L 2.609375 -2.15625 C 2.378906 -1.644531 2.296875 -1.25 2.359375 -0.96875 C 2.421875 -0.695312 2.570312 -0.5 2.8125 -0.375 C 3.050781 -0.25 3.335938 -0.148438 3.671875 -0.078125 L 3.671875 0 L 0.359375 0 L 0.359375 -0.078125 C 0.609375 -0.148438 0.832031 -0.25 1.03125 -0.375 C 1.226562 -0.507812 1.421875 -0.710938 1.609375 -0.984375 C 1.796875 -1.265625 2 -1.660156 2.21875 -2.171875 L 6.15625 -11.265625 L 6.125 -11.796875 L 6.46875 -11.984375 L 8.59375 -13.125 C 8.59375 -13.070312 8.613281 -12.960938 8.65625 -12.796875 C 8.695312 -12.640625 8.8125 -12.328125 9 -11.859375 Z M 3.125 -3.390625 L 9.75 -3.390625 L 6.5625 -11.328125 Z"/></g></g></g><g fill="#000" fill-opacity="1"><g transform="translate(187.270342, 269.339397)"><g><path d="M 6.34375 -7.53125 C 7.226562 -7.320312 7.945312 -7.066406 8.5 -6.765625 C 9.0625 -6.460938 9.488281 -6.128906 9.78125 -5.765625 C 10.082031 -5.410156 10.289062 -5.050781 10.40625 -4.6875 C 10.519531 -4.320312 10.578125 -3.972656 10.578125 -3.640625 C 10.578125 -2.898438 10.378906 -2.238281 9.984375 -1.65625 C 9.585938 -1.070312 9.015625 -0.609375 8.265625 -0.265625 C 7.523438 0.078125 6.628906 0.25 5.578125 0.25 C 4.484375 0.25 3.519531 0.0859375 2.6875 -0.234375 C 1.863281 -0.566406 1.207031 -0.96875 0.71875 -1.4375 L 2.375 -4.0625 C 2.3125 -3.4375 2.382812 -2.875 2.59375 -2.375 C 2.8125 -1.882812 3.109375 -1.460938 3.484375 -1.109375 C 3.867188 -0.765625 4.304688 -0.5 4.796875 -0.3125 C 5.296875 -0.125 5.796875 -0.03125 6.296875 -0.03125 C 6.828125 -0.03125 7.253906 -0.113281 7.578125 -0.28125 C 7.910156 -0.457031 8.164062 -0.671875 8.34375 -0.921875 C 8.53125 -1.179688 8.660156 -1.453125 8.734375 -1.734375 C 8.804688 -2.023438 8.84375 -2.289062 8.84375 -2.53125 C 8.84375 -3.070312 8.710938 -3.492188 8.453125 -3.796875 C 8.191406 -4.109375 7.8125 -4.359375 7.3125 -4.546875 C 6.8125 -4.742188 6.203125 -4.925781 5.484375 -5.09375 C 4.328125 -5.375 3.425781 -5.738281 2.78125 -6.1875 C 2.132812 -6.644531 1.679688 -7.144531 1.421875 -7.6875 C 1.171875 -8.226562 1.046875 -8.753906 1.046875 -9.265625 C 1.046875 -10.015625 1.242188 -10.65625 1.640625 -11.1875 C 2.035156 -11.71875 2.585938 -12.128906 3.296875 -12.421875 C 4.015625 -12.710938 4.859375 -12.859375 5.828125 -12.859375 C 6.867188 -12.859375 7.765625 -12.695312 8.515625 -12.375 C 9.265625 -12.050781 9.882812 -11.664062 10.375 -11.21875 L 8.65625 -8.59375 C 8.738281 -9.195312 8.6875 -9.742188 8.5 -10.234375 C 8.3125 -10.734375 8.035156 -11.15625 7.671875 -11.5 C 7.316406 -11.851562 6.898438 -12.117188 6.421875 -12.296875 C 5.953125 -12.484375 5.472656 -12.578125 4.984375 -12.578125 C 4.421875 -12.578125 3.976562 -12.46875 3.65625 -12.25 C 3.34375 -12.03125 3.125 -11.75 3 -11.40625 C 2.882812 -11.070312 2.828125 -10.738281 2.828125 -10.40625 C 2.828125 -9.78125 2.988281 -9.28125 3.3125 -8.90625 C 3.632812 -8.539062 4.0625 -8.253906 4.59375 -8.046875 C 5.132812 -7.835938 5.71875 -7.664062 6.34375 -7.53125 Z"/></g></g></g><g fill="#000" fill-opacity="1"><g transform="translate(212.80489, 269.339397)"><g><path d="M 0.265625 0 L 0.265625 -0.09375 C 0.640625 -0.132812 0.960938 -0.21875 1.234375 -0.34375 C 1.503906 -0.476562 1.640625 -0.707031 1.640625 -1.03125 L 1.640625 -11.578125 C 1.640625 -11.898438 1.503906 -12.125 1.234375 -12.25 C 0.960938 -12.375 0.640625 -12.460938 0.265625 -12.515625 L 0.265625 -12.59375 L 5.46875 -12.59375 L 5.46875 -12.515625 C 5.09375 -12.460938 4.769531 -12.375 4.5 -12.25 C 4.238281 -12.125 4.109375 -11.898438 4.109375 -11.578125 L 4.109375 -1.03125 C 4.109375 -0.707031 4.238281 -0.476562 4.5 -0.34375 C 4.769531 -0.21875 5.09375 -0.132812 5.46875 -0.09375 L 5.46875 0 Z"/></g></g></g><g fill="#000" fill-opacity="1"><g transform="translate(232.781043, 269.339397)"><g><path d="M 6.34375 -7.53125 C 7.226562 -7.320312 7.945312 -7.066406 8.5 -6.765625 C 9.0625 -6.460938 9.488281 -6.128906 9.78125 -5.765625 C 10.082031 -5.410156 10.289062 -5.050781 10.40625 -4.6875 C 10.519531 -4.320312 10.578125 -3.972656 10.578125 -3.640625 C 10.578125 -2.898438 10.378906 -2.238281 9.984375 -1.65625 C 9.585938 -1.070312 9.015625 -0.609375 8.265625 -0.265625 C 7.523438 0.078125 6.628906 0.25 5.578125 0.25 C 4.484375 0.25 3.519531 0.0859375 2.6875 -0.234375 C 1.863281 -0.566406 1.207031 -0.96875 0.71875 -1.4375 L 2.375 -4.0625 C 2.3125 -3.4375 2.382812 -2.875 2.59375 -2.375 C 2.8125 -1.882812 3.109375 -1.460938 3.484375 -1.109375 C 3.867188 -0.765625 4.304688 -0.5 4.796875 -0.3125 C 5.296875 -0.125 5.796875 -0.03125 6.296875 -0.03125 C 6.828125 -0.03125 7.253906 -0.113281 7.578125 -0.28125 C 7.910156 -0.457031 8.164062 -0.671875 8.34375 -0.921875 C 8.53125 -1.179688 8.660156 -1.453125 8.734375 -1.734375 C 8.804688 -2.023438 8.84375 -2.289062 8.84375 -2.53125 C 8.84375 -3.070312 8.710938 -3.492188 8.453125 -3.796875 C 8.191406 -4.109375 7.8125 -4.359375 7.3125 -4.546875 C 6.8125 -4.742188 6.203125 -4.925781 5.484375 -5.09375 C 4.328125 -5.375 3.425781 -5.738281 2.78125 -6.1875 C 2.132812 -6.644531 1.679688 -7.144531 1.421875 -7.6875 C 1.171875 -8.226562 1.046875 -8.753906 1.046875 -9.265625 C 1.046875 -10.015625 1.242188 -10.65625 1.640625 -11.1875 C 2.035156 -11.71875 2.585938 -12.128906 3.296875 -12.421875 C 4.015625 -12.710938 4.859375 -12.859375 5.828125 -12.859375 C 6.867188 -12.859375 7.765625 -12.695312 8.515625 -12.375 C 9.265625 -12.050781 9.882812 -11.664062 10.375 -11.21875 L 8.65625 -8.59375 C 8.738281 -9.195312 8.6875 -9.742188 8.5 -10.234375 C 8.3125 -10.734375 8.035156 -11.15625 7.671875 -11.5 C 7.316406 -11.851562 6.898438 -12.117188 6.421875 -12.296875 C 5.953125 -12.484375 5.472656 -12.578125 4.984375 -12.578125 C 4.421875 -12.578125 3.976562 -12.46875 3.65625 -12.25 C 3.34375 -12.03125 3.125 -11.75 3 -11.40625 C 2.882812 -11.070312 2.828125 -10.738281 2.828125 -10.40625 C 2.828125 -9.78125 2.988281 -9.28125 3.3125 -8.90625 C 3.632812 -8.539062 4.0625 -8.253906 4.59375 -8.046875 C 5.132812 -7.835938 5.71875 -7.664062 6.34375 -7.53125 Z"/></g></g></g></svg>
