<svg xmlns="http://www.w3.org/2000/svg" viewBox="129 254 120 18" preserveAspectRatio="xMidYMid meet"><g fill="#000" fill-opacity="1"><g transform="translate(130.91268, 269.339397)"><g><path d="M 8.328125 -7.296875 C 9.484375 -7.171875 10.421875 -6.851562 11.140625 -6.34375 C 11.867188 -5.84375 12.234375 -5.097656 12.234375 -4.109375 C 12.234375 -3.265625 11.976562 -2.535156 11.46875 -1.921875 C 10.957031 -1.316406 10.257812 -0.84375 9.375 -0.5 C 8.488281 -0.164062 7.484375 0 6.359375 0 L 0.265625 0 L 0.265625 -0.09375 C 0.640625 -0.21875 0.960938 -0.382812 1.234375 -0.59375 C 1.503906 -0.800781 1.640625 -1.066406 1.640625 -1.390625 L 1.640625 -11.578125 C 1.640625 -11.898438 1.503906 -12.125 1.234375 -12.25 C 0.960938 -12.375 0.640625 -12.460938 0.265625 -12.515625 L 0.265625 -12.59375 L 5.640625 -12.59375 C 6.367188 -12.59375 7.054688 -12.554688 7.703125 -12.484375 C 8.347656 -12.421875 8.921875 -12.296875 9.421875 -12.109375 C 9.929688 -11.929688 10.328125 -11.679688 10.609375 -11.359375 C 10.898438 -11.035156 11.046875 -10.613281 11.046875 -10.09375 C 11.046875 -9.4375 10.796875 -8.847656 10.296875 -8.328125 C 9.804688 -7.816406 9.148438 -7.472656 8.328125 -7.296875 Z M 5.546875 -12.3125 L 4.109375 -12.3125 L 4.109375 -7.34375 L 6.84375 -7.34375 C 7.164062 -7.34375 7.460938 -7.382812 7.734375 -7.46875 C 8.015625 -7.5625 8.234375 -7.742188 8.390625 -8.015625 C 8.554688 -8.285156 8.640625 -8.695312 8.640625 -9.25 C 8.640625 -9.820312 8.535156 -10.335938 8.328125 -10.796875 C 8.117188 -11.265625 7.785156 -11.632812 7.328125 -11.90625 C 6.878906 -12.175781 6.285156 -12.3125 5.546875 -12.3125 Z M 6.53125 -0.28125 C 7.3125 -0.28125 7.9375 -0.351562 8.40625 -0.5 C 8.882812 -0.65625 9.234375 -0.953125 9.453125 -1.390625 C 9.679688 -1.835938 9.796875 -2.507812 9.796875 -3.40625 C 9.796875 -3.84375 9.753906 -4.273438 9.671875 -4.703125 C 9.585938 -5.128906 9.414062 -5.519531 9.15625 -5.875 C 8.894531 -6.226562 8.507812 -6.507812 8 -6.71875 C 7.5 -6.925781 6.820312 -7.03125 5.96875 -7.03125 L 4.109375 -7.03125 L 4.109375 -0.703125 C 4.535156 -0.566406 4.941406 -0.460938 5.328125 -0.390625 C 5.710938 -0.316406 6.113281 -0.28125 6.53125 -0.28125 Z"/></g></g></g><g fill="#000" fill-opacity="1"><g transform="translate(158.102158, 269.339397)"><g><path d="M 12.796875 -2.265625 C 13.015625 -1.710938 13.207031 -1.28125 13.375 -0.96875 C 13.539062 -0.664062 13.71875 -0.445312 13.90625 -0.3125 C 14.09375 -0.1875 14.316406 -0.109375 14.578125 -0.078125 L 14.578125 0 L 8.890625 0 L 8.890625 -0.078125 C 9.304688 -0.109375 9.648438 -0.1875 9.921875 -0.3125 C 10.203125 -0.4375 10.378906 -0.644531 10.453125 -0.9375 C 10.523438 -1.226562 10.453125 -1.632812 10.234375 -2.15625 L 9.875 -3.0625 L 3 -3.0625 L 2.609375 -2.15625 C 2.378906 -1.644531 2.296875 -1.25 2.359375 -0.96875 C 2.421875 -0.695312 2.570312 -0.5 2.8125 -0.375 C 3.050781 -0.25 3.335938 -0.148438 3.671875 -0.078125 L 3.671875 0 L 0.359375 0 L 0.359375 -0.078125 C 0.609375 -0.148438 0.832031 -0.25 1.03125 -0.375 C 1.226562 -0.507812 1.421875 -0.710938 1.609375 -0.984375 C 1.796875 -1.265625 2 -1.660156 2.21875 -2.171875 L 6.15625 -11.265625 L 6.125 -11.796875 L 6.46875 -11.984375 L 8.59375 -13.125 C 8.59375 -13.070312 8.613281 -12.960938 8.65625 -12.796875 C 8.695312 -12.640625 8.8125 -12.328125 9 -11.859375 Z M 3.125 -3.390625 L 9.75 -3.390625 L 6.5625 -11.328125 Z"/></g></g></g><g fill="#000" fill-opacity="1"><g transform="translate(187.270342, 269.339397)"><g><path d="M 6.34375 -7.53125 C 7.226562 -7.320312 7.945312 -7.066406 8.5 -6.765625 C 9.0625 -6.460938 9.488281 -6.128906 9.78125 -5.765625 C 10.082031 -5.410156 10.289062 -5.050781 10.40625 -4.6875 C 10.519531 -4.320312 10.578125 -3.972656 10.578125 -3.640625 C 10.578125 -2.898438 10.378906 -2.238281 9.984375 -1.65625 C 9.585938 -1.070312 9.015625 -0.609375 8.265625 -0.265625 C 7.523438 0.078125 6.628906 0.25 5.578125 0.25 C 4.484375 0.25 3.519531 0.0859375 2.6875 -0.234375 C 1.863281 -0.566406 1.207031 -0.96875 0.71875 -1.4375 L 2.375 -4.0625 C 2.3125 -3.4375 2.382812 -2.875 2.59375 -2.375 C 2.8125 -1.882812 3.109375 -1.460938 3.484375 -1.109375 C 3.867188 -0.765625 4.304688 -0.5 4.796875 -0.3125 C 5.296875 -0.125 5.796875 -0.03125 6.296875 -0.03125 C 6.828125 -0.03125 7.253906 -0.113281 7.578125 -0.28125 C 7.910156 -0.457031 8.164062 -0.671875 8.34375 -0.921875 C 8.53125 -1.179688 8.660156 -1.453125 8.734375 -1.734375 C 8.804688 -2.023438 8.84375 -2.289062 8.84375 -2.53125 C 8.84375 -3.070312 8.710938 -3.492188 8.453125 -3.796875 C 8.191406 -4.109375 7.8125 -4.359375 7.3125 -4.546875 C 6.8125 -4.742188 6.203125 -4.925781 5.484375 -5.09375 C 4.328125 -5.375 3.425781 -5.738281 2.78125 -6.1875 C 2.132812 -6.644531 1.679688 -7.144531 1.421875 -7.6875 C 1.171875 -8.226562 1.046875 -8.753906 1.046875 -9.265625 C 1.046875 -10.015625 1.242188 -10.65625 1.640625 -11.1875 C 2.035156 -11.71875 2.585938 -12.128906 3.296875 -12.421875 C 4.015625 -12.710938 4.859375 -12.859375 5.828125 -12.859375 C 6.867188 -12.859375 7.765625 -12.695312 8.515625 -12.375 C 9.265625 -12.050781 9.882812 -11.664062 10.375 -11.21875 L 8.65625 -8.59375 C 8.738281 -9.195312 8.6875 -9.742188 8.5 -10.234375 C 8.3125 -10.734375 8.035156 -11.15625 7.671875 -11.5 C 7.316406 -11.851562 6.898438 -12.117188 6.421875 -12.296875 C 5.953125 -12.484375 5.472656 -12.578125 4.984375 -12.578125 C 4.421875 -12.578125 3.976562 -12.46875 3.65625 -12.25 C 3.34375 -12.03125 3.125 -11.75 3 -11.40625 C 2.882812 -11.070312 2.828125 -10.738281 2.828125 -10.40625 C 2.828125 -9.78125 2.988281 -9.28125 3.3125 -8.90625 C 3.632812 -8.539062 4.0625 -8.253906 4.59375 -8.046875 C 5.132812 -7.835938 5.71875 -7.664062 6.34375 -7.53125 Z"/></g></g></g><g fill="#000" fill-opacity="1"><g transform="translate(212.80489, 269.339397)"><g><path d="M 0.265625 0 L 0.265625 -0.09375 C 0.640625 -0.132812 0.960938 -0.21875 1.234375 -0.34375 C 1.503906 -0.476562 1.640625 -0.707031 1.640625 -1.03125 L 1.640625 -11.578125 C 1.640625 -11.898438 1.503906 -12.125 1.234375 -12.25 C 0.960938 -12.375 0.640625 -12.460938 0.265625 -12.515625 L 0.265625 -12.59375 L 5.46875 -12.59375 L 5.46875 -12.515625 C 5.09375 -12.460938 4.769531 -12.375 4.5 -12.25 C 4.238281 -12.125 4.109375 -11.898438 4.109375 -11.578125 L 4.109375 -1.03125 C 4.109375 -0.707031 4.238281 -0.476562 4.5 -0.34375 C 4.769531 -0.21875 5.09375 -0.132812 5.46875 -0.09375 L 5.46875 0 Z"/></g></g></g><g fill="#000" fill-opacity="1"><g transform="translate(232.781043, 269.339397)"><g><path d="M 6.34375 -7.53125 C 7.226562 -7.320312 7.945312 -7.066406 8.5 -6.765625 C 9.0625 -6.460938 9.488281 -6.128906 9.78125 -5.765625 C 10.082031 -5.410156 10.289062 -5.050781 10.40625 -4.6875 C 10.519531 -4.320312 10.578125 -3.972656 10.578125 -3.640625 C 10.578125 -2.898438 10.378906 -2.238281 9.984375 -1.65625 C 9.585938 -1.070312 9.015625 -0.609375 8.265625 -0.265625 C 7.523438 0.078125 6.628906 0.25 5.578125 0.25 C 4.484375 0.25 3.519531 0.0859375 2.6875 -0.234375 C 1.863281 -0.566406 1.207031 -0.96875 0.71875 -1.4375 L 2.375 -4.0625 C 2.3125 -3.4375 2.382812 -2.875 2.59375 -2.375 C 2.8125 -1.882812 3.109375 -1.460938 3.484375 -1.109375 C 3.867188 -0.765625 4.304688 -0.5 4.796875 -0.3125 C 5.296875 -0.125 5.796875 -0.03125 6.296875 -0.03125 C 6.828125 -0.03125 7.253906 -0.113281 7.578125 -0.28125 C 7.910156 -0.457031 8.164062 -0.671875 8.34375 -0.921875 C 8.53125 -1.179688 8.660156 -1.453125 8.734375 -1.734375 C 8.804688 -2.023438 8.84375 -2.289062 8.84375 -2.53125 C 8.84375 -3.070312 8.710938 -3.492188 8.453125 -3.796875 C 8.191406 -4.109375 7.8125 -4.359375 7.3125 -4.546875 C 6.8125 -4.742188 6.203125 -4.925781 5.484375 -5.09375 C 4.328125 -5.375 3.425781 -5.738281 2.78125 -6.1875 C 2.132812 -6.644531 1.679688 -7.144531 1.421875 -7.6875 C 1.171875 -8.226562 1.046875 -8.753906 1.046875 -9.265625 C 1.046875 -10.015625 1.242188 -10.65625 1.640625 -11.1875 C 2.035156 -11.71875 2.585938 -12.128906 3.296875 -12.421875 C 4.015625 -12.710938 4.859375 -12.859375 5.828125 -12.859375 C 6.867188 -12.859375 7.765625 -12.695312 8.515625 -12.375 C 9.265625 -12.050781 9.882812 -11.664062 10.375 -11.21875 L 8.65625 -8.59375 C 8.738281 -9.195312 8.6875 -9.742188 8.5 -10.234375 C 8.3125 -10.734375 8.035156 -11.15625 7.671875 -11.5 C 7.316406 -11.851562 6.898438 -12.117188 6.421875 -12.296875 C 5.953125 -12.484375 5.472656 -12.578125 4.984375 -12.578125 C 4.421875 -12.578125 3.976562 -12.46875 3.65625 -12.25 C 3.34375 -12.03125 3.125 -11.75 3 -11.40625 C 2.882812 -11.070312 2.828125 -10.738281 2.828125 -10.40625 C 2.828125 -9.78125 2.988281 -9.28125 3.3125 -8.90625 C 3.632812 -8.539062 4.0625 -8.253906 4.59375 -8.046875 C 5.132812 -7.835938 5.71875 -7.664062 6.34375 -7.53125 Z"/></g></g></g></svg>
