<svg xmlns="http://www.w3.org/2000/svg" xmlns:xlink="http://www.w3.org/1999/xlink" viewBox="118 109 139 140" preserveAspectRatio="xMidYMid meet"><defs><clipPath id="c1"><path d="M 118.054688 109.261719 L 256.804688 109.261719 L 256.804688 211.261719 L 118.054688 211.261719 Z"/></clipPath><clipPath id="c2"><path d="M 118.054688 228.550781 L 256.804688 228.550781 L 256.804688 247.261719 L 118.054688 247.261719 Z"/></clipPath><clipPath id="c3"><path d="M 129 120.21875 L 246 120.21875 L 246 237 L 129 237 Z"/></clipPath></defs><g clip-path="url(#c1)"><path fill="#000" d="M 187.472656 248.140625 C 149.214844 248.140625 118.054688 216.980469 118.054688 178.675781 C 118.054688 140.375 149.214844 109.261719 187.472656 109.261719 C 225.726562 109.261719 256.886719 140.421875 256.886719 178.675781 C 256.933594 216.980469 225.773438 248.140625 187.472656 248.140625 Z M 187.472656 110.433594 C 149.828125 110.433594 119.230469 141.03125 119.230469 178.675781 C 119.230469 216.320312 149.875 246.964844 187.472656 246.964844 C 225.070312 246.964844 255.761719 216.320312 255.761719 178.675781 C 255.761719 141.03125 225.117188 110.433594 187.472656 110.433594 Z"/></g><g clip-path="url(#c2)"><path fill="#000" d="M 187.472656 247.390625 C 149.214844 247.390625 118.054688 216.230469 118.054688 177.925781 C 118.054688 139.625 149.214844 108.511719 187.472656 108.511719 C 225.726562 108.511719 256.886719 139.671875 256.886719 177.925781 C 256.933594 216.230469 225.773438 247.390625 187.472656 247.390625 Z M 187.472656 109.683594 C 149.828125 109.683594 119.230469 140.28125 119.230469 177.925781 C 119.230469 215.570312 149.875 246.214844 187.472656 246.214844 C 225.070312 246.214844 255.761719 215.570312 255.761719 177.925781 C 255.761719 140.28125 225.117188 109.683594 187.472656 109.683594 Z"/></g><g clip-path="url(#c3)"><path fill="#000" d="M 187.832031 236.703125 C 156.253906 236.703125 130.539062 211.175781 130.203125 179.671875 L 136.492188 179.671875 C 136.808594 207.800781 159.699219 230.4375 187.832031 230.433594 C 188.160156 230.433594 188.429688 230.164062 188.429688 229.832031 C 188.429688 229.5 188.160156 229.234375 187.832031 229.234375 C 160.382812 229.234375 138.003906 207.070312 137.691406 179.671875 L 182.453125 179.671875 C 182.730469 182.1875 184.714844 184.171875 187.230469 184.449219 L 187.230469 203.492188 L 180.148438 210.550781 C 179.882812 210.75 179.828125 211.128906 180.027344 211.390625 C 180.226562 211.65625 180.601562 211.710938 180.867188 211.511719 C 180.914062 211.480469 180.953125 211.4375 180.988281 211.390625 L 187.207031 205.171875 L 187.207031 210.121094 L 180.148438 217.203125 C 179.882812 217.402344 179.828125 217.777344 180.027344 218.042969 C 180.226562 218.308594 180.601562 218.363281 180.867188 218.164062 C 180.914062 218.128906 180.953125 218.089844 180.988281 218.042969 L 187.207031 211.824219 L 187.207031 216.773438 L 180.148438 223.832031 C 179.882812 224.03125 179.828125 224.40625 180.027344 224.671875 C 180.226562 224.9375 180.601562 224.988281 180.867188 224.792969 C 180.914062 224.757812 180.953125 224.714844 180.988281 224.671875 L 187.207031 218.453125 L 187.207031 221.835938 C 187.207031 222.167969 187.476562 222.4375 187.804688 222.4375 C 188.136719 222.4375 188.40625 222.167969 188.40625 221.835938 L 188.40625 218.476562 L 194.648438 224.695312 C 194.914062 224.894531 195.292969 224.839844 195.492188 224.574219 C 195.652344 224.363281 195.652344 224.066406 195.492188 223.855469 L 188.429688 216.773438 L 188.429688 211.824219 L 194.648438 218.042969 C 194.914062 218.242188 195.292969 218.1875 195.492188 217.921875 C 195.652344 217.710938 195.652344 217.417969 195.492188 217.203125 L 188.40625 210.121094 L 188.40625 205.171875 L 194.625 211.390625 C 194.890625 211.589844 195.269531 211.539062 195.46875 211.273438 C 195.625 211.058594 195.625 210.765625 195.46875 210.550781 L 188.382812 203.46875 L 188.382812 184.449219 C 189.492188 184.324219 190.53125 183.851562 191.359375 183.105469 L 215.300781 204.644531 C 212.726562 207.421875 209.746094 209.796875 206.464844 211.679688 C 206.160156 211.816406 206.027344 212.171875 206.164062 212.476562 C 206.300781 212.777344 206.65625 212.910156 206.957031 212.773438 C 206.996094 212.757812 207.03125 212.738281 207.066406 212.714844 C 210.457031 210.761719 213.53125 208.308594 216.1875 205.4375 L 230.1875 218.042969 C 219.308594 229.921875 203.941406 236.691406 187.832031 236.703125 Z M 193.210938 179.671875 L 225.410156 179.671875 C 225.257812 188.539062 221.984375 197.066406 216.164062 203.757812 L 192.226562 182.21875 C 192.765625 181.46875 193.105469 180.589844 193.210938 179.671875 Z M 188.429688 174.917969 C 190.726562 175.269531 192.300781 177.410156 191.953125 179.707031 C 191.675781 181.523438 190.246094 182.949219 188.429688 183.226562 Z M 187.832031 146.390625 C 187.5 146.390625 187.230469 146.660156 187.230469 146.992188 L 187.230469 160.222656 L 181.972656 153.476562 L 187.832031 136.667969 L 193.6875 153.5 L 188.429688 160.246094 L 188.429688 146.992188 C 188.429688 146.660156 188.160156 146.390625 187.832031 146.390625 Z M 187.230469 174.917969 L 187.230469 183.226562 C 184.9375 182.875 183.359375 180.734375 183.710938 178.4375 C 183.988281 176.621094 185.414062 175.195312 187.230469 174.917969 Z M 130.203125 178.472656 C 130.332031 164.652344 135.449219 151.339844 144.609375 140.988281 L 158.609375 153.59375 C 152.59375 160.503906 149.207031 169.3125 149.050781 178.472656 Z M 150.25 178.472656 C 150.402344 169.605469 153.675781 161.078125 159.496094 154.386719 L 183.4375 175.925781 C 182.894531 176.675781 182.554688 177.554688 182.453125 178.472656 Z M 231.050781 217.15625 L 217.054688 204.550781 C 223.074219 197.632812 226.457031 188.816406 226.609375 179.648438 L 245.460938 179.648438 C 245.335938 193.476562 240.21875 206.796875 231.050781 217.15625 Z M 187.832031 121.445312 C 219.40625 121.445312 245.125 146.96875 245.460938 178.472656 L 239.167969 178.472656 C 238.851562 150.34375 215.960938 127.707031 187.832031 127.710938 C 187.5 127.710938 187.230469 127.980469 187.230469 128.308594 C 187.230469 128.640625 187.5 128.910156 187.832031 128.910156 C 215.277344 128.910156 237.65625 151.074219 237.96875 178.472656 L 193.210938 178.472656 C 192.933594 175.957031 190.945312 173.972656 188.429688 173.695312 L 188.429688 162.167969 L 194.820312 153.957031 C 194.949219 153.792969 194.984375 153.574219 194.914062 153.378906 L 188.40625 134.625 C 188.292969 134.316406 187.949219 134.152344 187.636719 134.265625 C 187.46875 134.328125 187.339844 134.457031 187.277344 134.625 L 180.746094 153.402344 C 180.675781 153.597656 180.714844 153.816406 180.84375 153.980469 L 187.230469 162.191406 L 187.230469 173.71875 C 186.121094 173.847656 185.082031 174.316406 184.253906 175.0625 L 160.3125 153.523438 C 162.886719 150.746094 165.867188 148.375 169.148438 146.488281 C 169.453125 146.351562 169.585938 145.996094 169.449219 145.691406 C 169.3125 145.390625 168.957031 145.257812 168.65625 145.394531 C 168.617188 145.410156 168.582031 145.429688 168.550781 145.457031 C 165.15625 147.40625 162.082031 149.859375 159.425781 152.730469 L 145.425781 140.101562 C 156.316406 128.207031 171.703125 121.4375 187.832031 121.445312 Z M 187.832031 120.242188 C 155.339844 120.253906 129.007812 146.601562 129.019531 179.09375 C 129.027344 194.683594 135.21875 209.632812 146.242188 220.660156 C 169.710938 243.128906 206.953125 242.316406 229.417969 218.847656 C 251.199219 196.097656 251.199219 160.234375 229.417969 137.484375 C 218.414062 126.414062 203.441406 120.207031 187.832031 120.242188"/></g></svg>
